<?xml version="1.0" encoding="UTF-8"?>
<!DOCTYPE svg PUBLIC "-//W3C//DTD SVG 1.1//EN" "http://www.w3.org/Graphics/SVG/1.1/DTD/svg11.dtd">
<!-- Creator: CorelDRAW 2017 -->
<svg xmlns="http://www.w3.org/2000/svg" xml:space="preserve" width="109.825mm" height="60.551mm" version="1.1" style="shape-rendering:geometricPrecision; text-rendering:geometricPrecision; image-rendering:optimizeQuality; fill-rule:evenodd; clip-rule:evenodd"
viewBox="0 0 10982.5 6055.1"
 xmlns:xlink="http://www.w3.org/1999/xlink">
 <defs>
  <style type="text/css">
   <![CDATA[
    .fil0 {fill:#727475;fill-rule:nonzero}
    
   ]]>
  </style>
  <linearGradient id="gradient">
              <stop offset="20%" style="stop-color:  #FECC00 "></stop>
              <stop offset="80%" style="stop-color: #febf00 "></stop>
    </linearGradient>
 </defs>
 <g id="Слой_x0020_1">
  <metadata id="CorelCorpID_0Corel-Layer"/>
  <g id="_1753294460704">
   <path class="fil0" d="M3943.11 4728.98c24.75,23.13 37.13,53.97 37.13,92.51 0,38.55 -12.38,69.49 -37.13,92.82 -24.75,23.33 -57,34.99 -96.77,34.99l-115.03 0 0 178.33 -46.25 0 0 -433.34 161.28 0c39.77,0 72.02,11.57 96.77,34.69zm-34.08 156.72c16.64,-14.81 24.95,-36.21 24.95,-64.21 0,-27.99 -8.31,-49.29 -24.95,-63.9 -16.64,-14.61 -38.95,-21.91 -66.95,-21.91l-110.77 0 0 172.24 110.77 0c28,0 50.31,-7.41 66.95,-22.22zm428.78 241.93l-49.29 0 -34.7 -97.99 -189.28 0 -34.69 97.99 -49.3 0 159.46 -433.34 38.95 0 158.85 433.34zm-97.38 -138.16l-80.33 -228.84 -81.56 228.84 161.89 0zm426.36 18.87c0,37.73 -13.6,67.66 -40.78,89.77 -27.19,22.12 -63.5,33.17 -108.94,33.17 -32.46,0 -60.26,-4.46 -83.39,-13.39 -23.12,-8.92 -44.83,-23.53 -65.12,-43.82l31.65 -31.65c17.45,17.45 35.2,29.72 53.25,36.82 18.06,7.11 39.67,10.66 64.82,10.66 31.65,0 56.6,-7.11 74.86,-21.31 18.26,-14.2 27.39,-33.88 27.39,-59.03 0,-23.94 -6.9,-42 -20.69,-54.17 -6.9,-6.09 -14,-10.45 -21.3,-13.08 -7.31,-2.64 -19.07,-5.18 -35.3,-7.61l-50.52 -7.91c-34.49,-5.69 -61.06,-16.64 -79.73,-32.87 -21.91,-19.48 -32.86,-46.46 -32.86,-80.95 0,-36.92 12.47,-66.54 37.43,-88.86 24.95,-22.31 58.73,-33.47 101.33,-33.47 27.59,0 51.33,3.65 71.21,10.96 19.88,7.3 39.15,19.47 57.82,36.51l-29.82 29.83c-27.19,-24.75 -60.87,-37.13 -101.03,-37.13 -28.41,0 -50.72,7.3 -66.95,21.91 -16.23,14.61 -24.35,34.08 -24.35,58.43 0,21.91 6.49,38.54 19.48,49.9 13.39,11.77 32.86,19.68 58.43,23.74l47.47 7.3c35.3,5.28 61.67,15.42 79.12,30.44 24.34,20.69 36.52,49.29 36.52,85.81zm346.01 0c0,37.73 -13.6,67.66 -40.78,89.77 -27.19,22.12 -63.5,33.17 -108.94,33.17 -32.46,0 -60.26,-4.46 -83.39,-13.39 -23.12,-8.92 -44.83,-23.53 -65.12,-43.82l31.65 -31.65c17.45,17.45 35.2,29.72 53.25,36.82 18.06,7.11 39.67,10.66 64.82,10.66 31.65,0 56.6,-7.11 74.86,-21.31 18.26,-14.2 27.39,-33.88 27.39,-59.03 0,-23.94 -6.9,-42 -20.69,-54.17 -6.9,-6.09 -14,-10.45 -21.3,-13.08 -7.31,-2.64 -19.07,-5.18 -35.3,-7.61l-50.52 -7.91c-34.49,-5.69 -61.06,-16.64 -79.73,-32.87 -21.91,-19.48 -32.86,-46.46 -32.86,-80.95 0,-36.92 12.47,-66.54 37.43,-88.86 24.95,-22.31 58.73,-33.47 101.33,-33.47 27.59,0 51.33,3.65 71.21,10.96 19.88,7.3 39.15,19.47 57.82,36.51l-29.82 29.83c-27.19,-24.75 -60.87,-37.13 -101.03,-37.13 -28.41,0 -50.72,7.3 -66.95,21.91 -16.23,14.61 -24.35,34.08 -24.35,58.43 0,21.91 6.49,38.54 19.48,49.9 13.39,11.77 32.86,19.68 58.43,23.74l47.47 7.3c35.3,5.28 61.67,15.42 79.12,30.44 24.34,20.69 36.52,49.29 36.52,85.81zm363.66 119.29l-269.01 0 0 -433.34 269.01 0 0 41.39 -222.76 0 0 152.76 189.89 0 0 41.39 -189.89 0 0 156.41 222.76 0 0 41.39zm414.17 0l-43.82 0 -230.06 -347.52 0 347.52 -46.25 0 0 -433.34 43.82 0 230.06 346.31 0 -346.31 46.25 0 0 433.34zm411.14 -158.24c0,48.28 -12.38,85.61 -37.13,111.98 -30.84,33.28 -69.38,49.91 -115.64,49.91 -43.82,0 -80.74,-15.01 -110.77,-45.04 -18.66,-18.66 -30.12,-39.25 -34.38,-61.77 -4.26,-22.52 -6.39,-60.36 -6.39,-113.51 0,-53.15 2.13,-90.99 6.39,-113.51 4.26,-22.52 15.72,-43.11 34.38,-61.77 30.03,-30.03 66.95,-45.04 110.77,-45.04 40.58,0 74.35,11.87 101.34,35.61 26.98,23.73 43.72,55.08 50.21,94.03l-46.26 0c-6.08,-27.59 -18.46,-49.2 -37.12,-64.82 -18.67,-15.62 -41.39,-23.43 -68.17,-23.43 -30.02,0 -54.98,10.34 -74.86,31.04 -12.98,13.39 -21.3,29.51 -24.95,48.38 -3.65,18.87 -5.48,52.04 -5.48,99.51 0,47.47 1.83,80.74 5.48,99.81 3.65,19.08 11.97,35.3 24.95,48.69 19.48,20.29 44.43,30.44 74.86,30.44 34.49,0 61.88,-12.38 82.17,-37.13 16.23,-19.48 24.34,-45.65 24.34,-78.51l0 -32.87 -106.51 0 0 -40.78 152.77 0 0 68.78zm374.61 158.24l-269.01 0 0 -433.34 269.01 0 0 41.39 -222.76 0 0 152.76 189.89 0 0 41.39 -189.89 0 0 156.41 222.76 0 0 41.39zm397.13 0l-54.17 0 -98.59 -192.32 -104.08 0 0 192.32 -46.25 0 0 -433.34 166.15 0c38.14,0 69.08,10.86 92.82,32.56 23.73,21.71 35.6,51.03 35.6,87.95 0,30.84 -8.52,56.4 -25.56,76.69 -17.04,20.28 -39.97,33.47 -68.78,39.56l102.86 196.58zm-78.21 -253.49c15.62,-13.59 23.43,-33.17 23.43,-58.73 0,-25.56 -7.91,-45.24 -23.73,-59.04 -15.83,-13.79 -36.72,-20.69 -62.69,-20.69l-115.64 0 0 158.85 115.64 0c26.37,0 47.37,-6.8 62.99,-20.39zm348.97 253.49l-46.25 0 0 -433.34 46.25 0 0 433.34zm443.39 0l-43.82 0 -230.06 -347.52 0 347.52 -46.25 0 0 -433.34 43.82 0 230.06 346.31 0 -346.31 46.25 0 0 433.34zm392.27 -391.95l-222.76 0 0 159.46 189.89 0 0 41.38 -189.89 0 0 191.11 -46.25 0 0 -433.34 269.01 0 0 41.39zm349.97 61.77c4.26,22.52 6.39,60.36 6.39,113.51 0,53.15 -2.13,90.99 -6.39,113.51 -4.26,22.52 -15.73,43.11 -34.39,61.77 -30.02,30.03 -66.95,45.04 -110.77,45.04 -43.82,0 -80.74,-15.01 -110.77,-45.04 -18.66,-18.66 -30.12,-39.25 -34.38,-61.77 -4.26,-22.52 -6.39,-60.36 -6.39,-113.51 0,-53.15 2.13,-90.99 6.39,-113.51 4.26,-22.52 15.72,-43.11 34.38,-61.77 30.03,-30.03 66.95,-45.04 110.77,-45.04 43.82,0 80.75,15.01 110.77,45.04 18.66,18.66 30.13,39.25 34.39,61.77zm-45.34 213.02c3.65,-18.87 5.47,-52.04 5.47,-99.51 0,-47.47 -1.82,-80.64 -5.47,-99.51 -3.66,-18.87 -11.97,-34.99 -24.96,-48.38 -19.88,-20.7 -44.83,-31.04 -74.86,-31.04 -30.02,0 -54.98,10.34 -74.86,31.04 -12.98,13.39 -21.3,29.51 -24.95,48.38 -3.65,18.87 -5.48,52.04 -5.48,99.51 0,47.47 1.83,80.64 5.48,99.51 3.65,18.87 11.97,35 24.95,48.39 19.88,20.69 44.84,31.04 74.86,31.04 30.03,0 54.98,-10.35 74.86,-31.04 12.99,-13.39 21.3,-29.52 24.96,-48.39zm461.64 117.16l-54.17 0 -98.59 -192.32 -104.08 0 0 192.32 -46.25 0 0 -433.34 166.15 0c38.14,0 69.08,10.86 92.82,32.56 23.73,21.71 35.6,51.03 35.6,87.95 0,30.84 -8.52,56.4 -25.56,76.69 -17.04,20.28 -39.97,33.47 -68.78,39.56l102.86 196.58zm-78.21 -253.49c15.62,-13.59 23.43,-33.17 23.43,-58.73 0,-25.56 -7.91,-45.24 -23.73,-59.04 -15.83,-13.79 -36.72,-20.69 -62.69,-20.69l-115.64 0 0 158.85 115.64 0c26.37,0 47.37,-6.8 62.99,-20.39zm543.51 253.49l-46.26 0 0 -329.26 -118.68 261.09 -39.56 0 -120.51 -261.09 0 329.26 -46.25 0 0 -433.34 46.25 0 141.2 307.36 137.55 -307.36 46.26 0 0 433.34zm425.12 0l-49.29 0 -34.7 -97.99 -189.28 0 -34.69 97.99 -49.3 0 159.46 -433.34 38.95 0 158.85 433.34zm-97.38 -138.16l-80.33 -228.84 -81.56 228.84 161.89 0zm381.32 -253.79l-125.38 0 0 391.95 -46.26 0 0 -391.95 -125.37 0 0 -41.39 297.01 0 0 41.39zm125.07 391.95l-46.25 0 0 -433.34 46.25 0 0 433.34zm403.53 -330.18c4.26,22.52 6.39,60.36 6.39,113.51 0,53.15 -2.13,90.99 -6.39,113.51 -4.26,22.52 -15.73,43.11 -34.39,61.77 -30.02,30.03 -66.95,45.04 -110.77,45.04 -43.82,0 -80.74,-15.01 -110.77,-45.04 -18.66,-18.66 -30.12,-39.25 -34.38,-61.77 -4.26,-22.52 -6.39,-60.36 -6.39,-113.51 0,-53.15 2.13,-90.99 6.39,-113.51 4.26,-22.52 15.72,-43.11 34.38,-61.77 30.03,-30.03 66.95,-45.04 110.77,-45.04 43.82,0 80.75,15.01 110.77,45.04 18.66,18.66 30.13,39.25 34.39,61.77zm-45.34 213.02c3.65,-18.87 5.47,-52.04 5.47,-99.51 0,-47.47 -1.82,-80.64 -5.47,-99.51 -3.66,-18.87 -11.97,-34.99 -24.96,-48.38 -19.88,-20.7 -44.83,-31.04 -74.86,-31.04 -30.02,0 -54.98,10.34 -74.86,31.04 -12.98,13.39 -21.3,29.51 -24.95,48.38 -3.65,18.87 -5.48,52.04 -5.48,99.51 0,47.47 1.83,80.64 5.48,99.51 3.65,18.87 11.97,35 24.95,48.39 19.88,20.69 44.84,31.04 74.86,31.04 30.03,0 54.98,-10.35 74.86,-31.04 12.99,-13.39 21.3,-29.52 24.96,-48.39zm478.68 117.16l-43.82 0 -230.06 -347.52 0 347.52 -46.25 0 0 -433.34 43.82 0 230.06 346.31 0 -346.31 46.25 0 0 433.34z"/>
   <path class="fil0" d="M3971.49 5857.05l-49.29 0 -34.7 -97.99 -189.28 0 -34.69 97.99 -49.3 0 159.46 -433.34 38.95 0 158.85 433.34zm-97.38 -138.16l-80.33 -228.84 -81.56 228.84 161.89 0zm485.39 138.16l-43.82 0 -230.06 -347.52 0 347.52 -46.25 0 0 -433.34 43.82 0 230.06 346.31 0 -346.31 46.25 0 0 433.34zm423.92 -221.54c0,54.37 -2.64,92.72 -7.92,115.03 -6.89,28 -18.46,50.11 -34.69,66.34 -26.78,26.78 -63.29,40.17 -109.55,40.17l-148.5 0 0 -433.34 148.5 0c46.26,0 82.77,13.39 109.55,40.17 8.52,8.52 15.73,18.77 21.61,30.74 5.88,11.97 10.14,22.11 12.78,30.43 2.64,8.32 4.67,21.1 6.09,38.34 1.42,17.25 2.13,28.5 2.13,33.78 0,5.27 0,18.05 0,38.34zm-46.26 0c0,-25.15 -0.2,-43.51 -0.61,-55.08 -0.4,-11.56 -2.84,-25.97 -7.3,-43.21 -4.46,-17.24 -11.36,-30.74 -20.69,-40.47 -20.7,-21.1 -49.1,-31.65 -85.21,-31.65l-94.34 0 0 350.56 94.34 0c36.11,0 64.51,-10.55 85.21,-31.64 9.33,-9.74 16.23,-24.15 20.69,-43.22 4.46,-19.07 6.9,-34.79 7.3,-47.16 0.41,-12.38 0.61,-31.75 0.61,-58.13zm585.42 221.54l-49.29 0 -34.7 -97.99 -189.28 0 -34.69 97.99 -49.3 0 159.46 -433.34 38.95 0 158.85 433.34zm-97.38 -138.16l-80.33 -228.84 -81.56 228.84 161.89 0zm433.05 138.16l-267.79 0 0 -433.34 46.25 0 0 391.95 221.54 0 0 41.39zm347.84 0l-269.01 0 0 -433.34 269.01 0 0 41.39 -222.76 0 0 152.76 189.89 0 0 41.39 -189.89 0 0 156.41 222.76 0 0 41.39zm397.13 0l-54.17 0 -98.59 -192.32 -104.08 0 0 192.32 -46.25 0 0 -433.34 166.15 0c38.14,0 69.08,10.86 92.82,32.56 23.73,21.71 35.6,51.03 35.6,87.95 0,30.84 -8.52,56.4 -25.56,76.69 -17.04,20.28 -39.97,33.47 -68.78,39.56l102.86 196.58zm-78.21 -253.49c15.62,-13.59 23.43,-33.17 23.43,-58.73 0,-25.56 -7.91,-45.24 -23.73,-59.04 -15.83,-13.79 -36.72,-20.69 -62.69,-20.69l-115.64 0 0 158.85 115.64 0c26.37,0 47.37,-6.8 62.99,-20.39zm424.83 -138.46l-125.38 0 0 391.95 -46.26 0 0 -391.95 -125.37 0 0 -41.39 297.01 0 0 41.39zm125.07 391.95l-46.25 0 0 -433.34 46.25 0 0 433.34zm443.39 0l-43.82 0 -230.06 -347.52 0 347.52 -46.25 0 0 -433.34 43.82 0 230.06 346.31 0 -346.31 46.25 0 0 433.34zm411.14 -158.24c0,48.28 -12.38,85.61 -37.13,111.98 -30.84,33.28 -69.38,49.91 -115.64,49.91 -43.82,0 -80.74,-15.01 -110.77,-45.04 -18.66,-18.66 -30.12,-39.25 -34.38,-61.77 -4.26,-22.52 -6.39,-60.36 -6.39,-113.51 0,-53.15 2.13,-90.99 6.39,-113.51 4.26,-22.52 15.72,-43.11 34.38,-61.77 30.03,-30.03 66.95,-45.04 110.77,-45.04 40.58,0 74.35,11.87 101.34,35.61 26.98,23.73 43.72,55.08 50.21,94.03l-46.26 0c-6.08,-27.59 -18.46,-49.2 -37.12,-64.82 -18.67,-15.62 -41.39,-23.43 -68.17,-23.43 -30.02,0 -54.98,10.34 -74.86,31.04 -12.98,13.39 -21.3,29.51 -24.95,48.38 -3.65,18.87 -5.48,52.04 -5.48,99.51 0,47.47 1.83,80.74 5.48,99.81 3.65,19.08 11.97,35.3 24.95,48.69 19.48,20.29 44.43,30.44 74.86,30.44 34.49,0 61.88,-12.38 82.17,-37.13 16.23,-19.48 24.34,-45.65 24.34,-78.51l0 -32.87 -106.51 0 0 -40.78 152.77 0 0 68.78zm497.17 38.95c0,37.73 -13.6,67.66 -40.78,89.77 -27.19,22.12 -63.5,33.17 -108.94,33.17 -32.46,0 -60.26,-4.46 -83.39,-13.39 -23.12,-8.92 -44.83,-23.53 -65.12,-43.82l31.65 -31.65c17.45,17.45 35.2,29.72 53.25,36.82 18.06,7.11 39.67,10.66 64.82,10.66 31.65,0 56.6,-7.11 74.86,-21.31 18.26,-14.2 27.39,-33.88 27.39,-59.03 0,-23.94 -6.9,-42 -20.69,-54.17 -6.9,-6.09 -14,-10.45 -21.3,-13.08 -7.31,-2.64 -19.07,-5.18 -35.3,-7.61l-50.52 -7.91c-34.49,-5.69 -61.06,-16.64 -79.73,-32.87 -21.91,-19.48 -32.86,-46.46 -32.86,-80.95 0,-36.92 12.47,-66.54 37.43,-88.86 24.95,-22.31 58.73,-33.47 101.33,-33.47 27.59,0 51.33,3.65 71.21,10.96 19.88,7.3 39.15,19.47 57.82,36.51l-29.82 29.83c-27.19,-24.75 -60.87,-37.13 -101.03,-37.13 -28.41,0 -50.72,7.3 -66.95,21.91 -16.23,14.61 -24.35,34.08 -24.35,58.43 0,21.91 6.49,38.54 19.48,49.9 13.39,11.77 32.86,19.68 58.43,23.74l47.47 7.3c35.3,5.28 61.67,15.42 79.12,30.44 24.34,20.69 36.52,49.29 36.52,85.81zm327.75 -314.05l-127.81 254.41 0 178.93 -46.25 0 0 -178.93 -129.03 -254.41 49.91 0 102.24 207.54 101.03 -207.54 49.91 0zm326.54 314.05c0,37.73 -13.6,67.66 -40.78,89.77 -27.19,22.12 -63.5,33.17 -108.94,33.17 -32.46,0 -60.26,-4.46 -83.39,-13.39 -23.12,-8.92 -44.83,-23.53 -65.12,-43.82l31.65 -31.65c17.45,17.45 35.2,29.72 53.25,36.82 18.06,7.11 39.67,10.66 64.82,10.66 31.65,0 56.6,-7.11 74.86,-21.31 18.26,-14.2 27.39,-33.88 27.39,-59.03 0,-23.94 -6.9,-42 -20.69,-54.17 -6.9,-6.09 -14,-10.45 -21.3,-13.08 -7.31,-2.64 -19.07,-5.18 -35.3,-7.61l-50.52 -7.91c-34.49,-5.69 -61.06,-16.64 -79.73,-32.87 -21.91,-19.48 -32.86,-46.46 -32.86,-80.95 0,-36.92 12.47,-66.54 37.43,-88.86 24.95,-22.31 58.73,-33.47 101.33,-33.47 27.59,0 51.33,3.65 71.21,10.96 19.88,7.3 39.15,19.47 57.82,36.51l-29.82 29.83c-27.19,-24.75 -60.87,-37.13 -101.03,-37.13 -28.41,0 -50.72,7.3 -66.95,21.91 -16.23,14.61 -24.35,34.08 -24.35,58.43 0,21.91 6.49,38.54 19.48,49.9 13.39,11.77 32.86,19.68 58.43,23.74l47.47 7.3c35.3,5.28 61.67,15.42 79.12,30.44 24.34,20.69 36.52,49.29 36.52,85.81zm347.23 -272.66l-125.38 0 0 391.95 -46.26 0 0 -391.95 -125.37 0 0 -41.39 297.01 0 0 41.39zm347.83 391.95l-269.01 0 0 -433.34 269.01 0 0 41.39 -222.76 0 0 152.76 189.89 0 0 41.39 -189.89 0 0 156.41 222.76 0 0 41.39zm465.3 0l-46.26 0 0 -329.26 -118.68 261.09 -39.56 0 -120.51 -261.09 0 329.26 -46.25 0 0 -433.34 46.25 0 141.2 307.36 137.55 -307.36 46.26 0 0 433.34z"/>
   <path class="fil1"  fill=" url(#gradient)" d="M7785.61 3278.85c-33.42,25.97 -80.54,38.95 -141.36,38.95 -55.63,0 -100.14,-11.51 -133.52,-34.52 -33.38,-22.98 -59.39,-61.2 -77.89,-114.6l-449.58 42.27c25.96,113.5 84.78,201.04 176.41,262.61 91.58,61.58 245.36,92.34 461.23,92.34 152.82,0 273.55,-19.11 362.19,-57.25 88.63,-38.13 153.58,-89.48 194.71,-153.95 41.18,-64.44 61.77,-130.76 61.77,-198.95 0,-67.43 -19.5,-129.3 -58.39,-185.65 -38.95,-56.32 -95.15,-99.66 -168.62,-130.05 -73.41,-30.43 -185.44,-54.13 -336.02,-71.16 -99.39,-11.86 -163.96,-25.17 -193.63,-40.01 -29.67,-14.81 -44.5,-36.66 -44.5,-65.54 0,-25.92 11.69,-47.96 35.04,-66.1 23.4,-18.16 60.62,-27.24 111.83,-27.24 50.41,0 93.49,11.9 129.05,35.61 25.97,17.81 44.56,45.63 55.64,83.45l429.56 -42.27c-29.67,-77.13 -66.99,-138.35 -111.84,-183.61 -44.88,-45.25 -100.9,-78.63 -168.04,-100.14 -67.14,-21.49 -171.17,-32.27 -312.11,-32.27 -133.52,0 -240.03,13.91 -319.35,41.68 -79.4,27.8 -141.69,69.85 -186.96,126.17 -45.27,56.33 -67.9,123.4 -67.9,201.24 0,71.1 20.97,134.49 62.91,190.07 41.89,55.59 93.48,95.03 154.68,118.4 61.19,23.35 170.41,48.7 327.66,76.14 105.37,18.5 170.28,34.05 194.76,46.65 34.14,17.78 51.17,42.98 51.17,75.55 0,28.91 -12.98,52.97 -38.9,72.18z
   M5721.29 2357.47l0 752.25c0,155.01 35.38,269.79 106.23,344.35 70.85,74.55 168.61,111.83 293.23,111.83 93.44,0 172.28,-16.69 236.47,-50.07 64.14,-33.38 127.76,-89.38 190.82,-168.03l0 191.43 422.81 0 0 -1181.76 -452.86 0 0 568.6c0,107.6 -17.22,182.13 -51.73,223.69 -34.48,41.55 -78.79,62.29 -132.95,62.29 -49.75,0 -88.31,-15.55 -115.74,-46.75 -27.49,-31.14 -41.18,-83.77 -41.18,-158.02l0 -649.81 -455.1 0z
   M5082.38 3539.23c37.04,0 112.35,-7.42 225.86,-22.3 85.3,-11.13 149.1,-28.91 191.38,-53.4 68.23,-39.27 122.01,-92.72 161.33,-160.24 39.32,-67.47 58.96,-143.5 58.96,-228.09 0,-103.86 -27.62,-190.09 -82.87,-258.73 -55.26,-68.59 -141.52,-117 -258.72,-145.19 77.12,-26.72 135.75,-63.06 175.84,-109.06 60.05,-69 90.1,-151.68 90.1,-248.14 0,-114.97 -42.08,-211.43 -126.29,-289.31 -84.2,-77.89 -204.93,-116.83 -362.18,-116.83l-943.62 0 0 1631.29 870.21 0zm-361.64 -1300.82l0 0 222.51 0c76.4,0 130,13.36 160.8,40.06 30.77,26.7 46.18,63.81 46.18,111.29 0,51.16 -15.41,90.32 -46.18,117.38 -30.8,27.08 -85.49,40.62 -164.14,40.62l-219.17 0 0 -309.35zm0 619.78l0 0 255.94 0c88.25,0 149.96,14.68 185.25,43.96 35.19,29.29 52.82,68.1 52.82,116.29 0,51.95 -17.78,93.33 -53.4,124.09 -35.61,30.77 -96.81,46.17 -183.58,46.17l-257.03 0 0 -330.51z
   "/>
   <path class="fil0" d="M3625.81 3514.74c48.95,-25.96 103.08,-76.03 162.43,-150.25l0 174.74 423.93 0 0 -1631.29 -457.31 0 0 565.27c-44.51,-47.48 -95.53,-83.09 -152.99,-106.82 -57.49,-23.73 -121.49,-35.62 -191.96,-35.62 -144.64,0 -263.9,51.95 -357.76,155.77 -93.84,103.88 -140.75,253.71 -140.75,449.57 0,175.08 42.49,323.81 127.41,446.21 84.92,122.39 207.89,183.58 368.87,183.58 80.12,0 152.82,-17.07 218.13,-51.16zm-208.08 -780.03l0 0c35.59,-43.77 79.72,-65.67 132.39,-65.67 60.1,0 109.78,22.82 149.11,68.43 39.3,45.62 58.96,114.8 58.96,207.52 0,102.38 -19.28,176.19 -57.85,221.45 -38.56,45.27 -86.82,67.86 -144.64,67.86 -54.21,0 -99.62,-22.39 -136.33,-67.28 -36.73,-44.89 -55.08,-115.56 -55.08,-211.99 0,-103.14 17.81,-176.56 53.44,-220.32z"/>
   <path class="fil0" d="M1912.53 1907.94l-613.11 1631.29 514.66 0 79.5 -269.31 572.28 0 81.62 269.31 527.85 0 -612.97 -1631.29 -549.83 0zm90.53 1009.24l0 0 178.17 -586.41 180.09 586.41 -358.26 0z"/>
   <polygon class="fil1" fill=" url(#gradient)" points="3011.51,6055.12 3028.68,4590.43 1917.69,5545.06 2564.64,5585.5 "/>
   <path class="fil0" d="M9071.52 622.33c-22.56,-336.51 -313.75,-618.84 -647.32,-621.42 -2619.51,-16.82 -5250.24,195.48 -7868.64,573.74 -333.51,48.84 -582.33,361.81 -553.23,692.39 105.9,1204.89 212,2416.81 318.21,3635.05 29.19,334.42 325.95,585.34 659.43,556.29 178.02,-15.84 356.04,-31.91 534.07,-47.95l165.65 -142.34 696.26 -598.28c-420.88,20.88 -841.75,41.57 -1262.58,61.46 -133.76,6.19 -252.69,-98.8 -264.27,-233.01 -92.38,-1070.41 -184.55,-2132.89 -276.41,-3186.56 -11.53,-132.04 87.81,-261.2 220.83,-286.45 2580.67,-486.29 5184.71,-777.66 7769.08,-741.84 133.16,1.93 259.02,116.28 279.78,252.58 132,867.31 264.14,1726.74 396.49,2577.29 -55.82,-828.06 -111.59,-1658.35 -167.35,-2490.95z"/>
  </g>
 </g>
</svg>
